<svg version="1.1" id="Layer_1" xmlns="http://www.w3.org/2000/svg" xmlns:xlink="http://www.w3.org/1999/xlink" x="0px" y="0px"
	 width="100%" viewBox="0 0 2560 2560" enable-background="new 0 0 2560 2560" xml:space="preserve">
<path fill="#000000" opacity="1.000000" stroke="none" 
	d="
M1192.000000,2562.000000 
	C794.666687,2562.000000 398.333344,2562.000000 2.000000,2562.000000 
	C2.000000,1708.666626 2.000000,855.333313 2.000000,2.000000 
	C855.333313,2.000000 1708.666626,2.000000 2562.000000,2.000000 
	C2562.000000,855.333313 2562.000000,1708.666626 2562.000000,2562.000000 
	C2105.666748,2562.000000 1649.333374,2562.000000 1192.000000,2562.000000 
M1545.311401,837.709900 
	C1456.752075,769.380615 1368.192627,701.051331 1279.671753,632.751709 
	C1002.449402,849.609680 726.040405,1065.831421 448.636505,1282.831421 
	C727.980347,1498.860840 1006.460571,1714.222290 1285.551147,1930.055664 
	C1563.997314,1714.020508 1842.226929,1498.153320 2121.148926,1281.749146 
	C1928.946655,1133.500732 1737.717529,986.002747 1545.311401,837.709900 
z"/>
<path fill="#FFFFFF" opacity="1.000000" stroke="none" 
	d="
M1545.899902,838.107361 
	C1737.717529,986.002747 1928.946655,1133.500732 2121.148926,1281.749146 
	C1842.226929,1498.153320 1563.997314,1714.020508 1285.551147,1930.055664 
	C1006.460571,1714.222290 727.980347,1498.860840 448.636505,1282.831421 
	C726.040405,1065.831421 1002.449402,849.609680 1279.671753,632.751709 
	C1368.192627,701.051331 1456.752075,769.380615 1545.899902,838.107361 
z"/>
</svg>