<svg version="1.1" id="Layer_1" xmlns="http://www.w3.org/2000/svg" xmlns:xlink="http://www.w3.org/1999/xlink" x="0px" y="0px"
	 width="100%" viewBox="0 0 1024 512" enable-background="new 0 0 1024 512" xml:space="preserve">
<path fill="#000000" opacity="1.000000" stroke="none"
	d="
M93.142273,264.823669
	C86.380608,256.121429 86.682983,258.598938 92.803040,250.634827
	C121.317238,213.528915 149.931885,176.500198 178.517410,139.449127
	C179.520416,138.149078 180.278931,136.600189 182.050278,135.825394
	C184.160217,136.258072 185.031616,138.236984 186.191025,139.730484
	C215.398773,177.354034 244.520599,215.044418 273.799408,252.612473
	C276.230377,255.731674 276.092865,257.811920 273.774139,260.801819
	C244.282318,298.830292 214.892258,336.937683 185.472839,375.022339
	C184.662766,376.071045 183.918228,377.204895 181.647736,377.987091
	C152.351379,340.521973 122.861702,302.809631 93.142273,264.823669
M191.240768,203.282623
	C190.180466,202.475662 189.119263,201.669861 188.059967,200.861557
	C181.002090,195.475937 182.942886,195.415573 175.771347,201.000488
	C158.168198,214.709152 140.586182,228.444992 123.016571,242.196609
	C116.898201,246.985428 110.841232,251.852676 104.979668,256.506683
	C105.504219,258.630554 106.807709,259.223511 107.821457,260.008728
	C131.523987,278.367798 155.302322,296.629730 178.907822,315.112457
	C182.095688,317.608490 184.040558,316.661224 186.647491,314.631165
	C209.907288,296.518188 233.229019,278.484772 256.512878,260.402649
	C257.771240,259.425415 259.471405,258.691864 259.395660,255.839539
	C237.130554,238.664124 214.473007,221.185974 191.240768,203.282623
z"/>
<path fill="#000000" opacity="1.000000" stroke="none"
	d="
M397.113953,161.686920
	C411.046631,161.106705 424.297424,162.234390 436.698914,167.833557
	C458.192383,177.537659 470.491821,194.763977 475.574188,217.344955
	C481.343445,242.977646 480.640259,268.250214 469.414093,292.473572
	C462.424316,307.555817 451.192169,318.546844 435.702942,324.964050
	C434.631866,325.407806 433.490143,325.732300 432.451233,327.452942
	C443.629700,340.824127 456.916748,352.607697 468.481812,365.925812
	C468.349182,366.399963 468.216583,366.874146 468.083954,367.348328
	C462.552521,367.348328 456.967377,366.862305 451.502625,367.466034
	C443.932404,368.302368 438.776215,365.603607 434.152344,359.614380
	C427.242126,350.663635 419.466736,342.383484 412.135681,333.753265
	C410.151550,331.417480 408.024048,330.579163 404.801727,330.658081
	C364.652496,331.641022 336.663300,310.247742 329.638062,269.262787
	C325.862823,247.238312 326.464600,225.443237 334.714508,204.430054
	C344.182281,180.314926 362.341461,166.810120 387.713287,162.705307
	C390.662689,162.228119 393.656158,162.022964 397.113953,161.686920
M349.946625,229.342163
	C348.372192,239.782486 348.512573,250.312256 349.514832,260.725098
	C350.757080,273.631592 354.423920,285.942291 362.962769,296.144867
	C374.753540,310.232941 390.592529,313.506958 408.006256,312.810638
	C429.683807,311.943878 445.980194,300.409485 452.693329,279.849152
	C459.870728,257.866943 459.639709,235.618515 453.105225,213.508041
	C450.466888,204.580734 445.840698,196.614090 438.395660,190.764374
	C421.982483,177.868286 403.268066,176.962158 384.328888,182.506073
	C361.878326,189.077835 353.341492,207.047089 349.946625,229.342163
z"/>
<path fill="#000000" opacity="1.000000" stroke="none"
	d="
M594.474548,212.622284
	C603.851746,243.572830 614.273682,273.790771 622.484497,305.033722
	C627.250488,286.445648 631.935425,268.089417 636.667542,249.745407
	C640.074890,236.536942 643.649170,223.370422 646.922852,210.129288
	C647.885254,206.236649 649.677856,204.440079 653.815796,204.805557
	C658.378784,205.208557 663.041748,204.330673 667.977295,205.521011
	C667.183350,212.543335 664.830078,218.779999 663.094666,225.126633
	C654.185913,257.706665 645.030212,290.219299 636.181885,322.815491
	C635.001099,327.165253 633.076965,328.886719 628.588562,328.463959
	C624.623962,328.090546 620.587097,328.199310 616.600952,328.426300
	C613.042908,328.628906 611.243225,327.383270 610.187683,323.817108
	C601.118713,293.177124 590.312317,263.060303 582.569092,232.019226
	C582.290466,230.902176 581.899536,229.813141 581.191650,227.508881
	C577.894958,240.144531 575.113770,251.718384 571.386780,263.028503
	C564.927246,282.631409 558.507996,302.251953 552.477783,321.989136
	C550.921570,327.082916 548.555786,329.143494 543.301697,328.456390
	C540.188293,328.049255 536.952271,328.113556 533.819275,328.433990
	C529.294983,328.896729 527.429932,326.959991 526.276672,322.658813
	C516.881531,287.617767 507.248688,252.640533 497.718658,217.635544
	C494.236969,204.846924 494.274567,204.836685 507.404663,204.836441
	C514.625366,204.836304 514.637146,204.833267 516.511353,212.103912
	C524.107727,241.572342 532.210022,270.913574 538.785217,300.638824
	C539.130493,302.199646 539.433411,303.769836 540.036499,306.697235
	C546.640442,279.375275 555.789307,254.254562 563.663940,228.740372
	C565.725403,222.061157 567.970276,215.438324 570.013000,208.753601
	C570.867676,205.956604 572.441284,204.641663 575.453247,204.820374
	C578.441833,204.997696 581.499329,205.194336 584.438904,204.772034
	C590.439209,203.910019 593.576050,206.399673 594.474548,212.622284
z"/>
<path fill="#000000" opacity="1.000000" stroke="none"
	d="
M840.912598,328.383575
	C828.525696,328.352875 828.593994,328.352631 828.552673,316.343719
	C828.440186,283.690552 828.201843,251.037704 828.137085,218.384476
	C828.097778,198.573410 828.326904,178.761917 828.340393,158.950546
	C828.342834,155.337219 829.299561,153.493073 833.441589,153.616348
	C850.250000,154.116623 847.915955,150.967758 847.918457,167.588409
	C847.921082,185.062424 848.619812,202.545959 847.269409,220.350006
	C848.007690,220.024292 848.545410,219.962051 848.766479,219.664551
	C862.529602,201.138046 892.031189,199.270447 911.007935,207.719849
	C925.313904,214.089584 930.431213,226.437836 931.215515,240.785309
	C932.707458,268.076630 931.574524,295.417816 931.944641,322.734497
	C932.002563,327.006989 930.600525,328.509277 926.183594,328.482147
	C911.909912,328.394440 911.908875,328.557953 911.907043,314.259918
	C911.904297,293.098785 911.921631,271.937622 911.878845,250.776581
	C911.871826,247.282730 911.980469,243.723923 911.388977,240.307068
	C908.705505,224.804642 899.080444,218.817856 882.261597,219.634476
	C859.991699,220.715790 848.982605,232.214874 848.407654,254.671829
	C847.836426,276.985352 848.108521,299.320465 848.011475,321.646118
	C847.982666,328.282471 847.983643,328.282471 840.912598,328.383575
z"/>
<path fill="#000000" opacity="1.000000" stroke="none"
	d="
M748.733704,284.994141
	C748.731567,265.166016 748.593750,245.835175 748.823486,226.508713
	C748.880554,221.706512 747.392639,219.699310 742.577881,220.311920
	C741.102539,220.499649 739.551636,220.524384 738.089661,220.287766
	C735.763611,219.911270 732.234375,221.780930 731.718323,217.578476
	C731.244873,213.722839 730.944580,209.726562 736.177551,208.508423
	C746.463074,206.114136 751.663330,199.343170 753.102295,189.108948
	C753.514221,186.180084 754.930359,183.406265 755.648254,180.502563
	C756.309448,177.828445 757.714294,176.726715 760.541260,176.627274
	C768.177063,176.358658 768.317139,176.375000 768.330811,184.126968
	C768.339661,189.125885 768.569885,194.139725 768.258911,199.119263
	C767.989685,203.430664 769.385559,205.093262 773.870239,204.924545
	C781.857300,204.624084 789.873047,205.068008 797.858459,204.745773
	C802.789368,204.546799 804.213928,206.545639 804.160461,211.184631
	C804.054749,220.352158 804.239441,220.350937 794.873047,220.345139
	C787.541260,220.340607 780.206543,220.469238 772.879028,220.292877
	C769.376709,220.208572 768.256775,221.551743 768.273010,224.982681
	C768.381287,247.810623 768.184204,270.640717 768.394470,293.467285
	C768.532104,308.411957 777.480469,315.848877 792.465942,314.077789
	C794.450378,313.843262 796.458252,313.788086 798.433899,313.502106
	C805.000854,312.551575 804.997192,312.525726 805.017761,319.363007
	C805.043457,327.912720 805.054321,327.972839 796.428223,329.537415
	C788.679626,330.942841 780.942871,331.348450 773.154785,329.455902
	C759.980408,326.254517 751.640503,316.967682 749.670410,303.426056
	C748.801453,297.452545 748.723145,291.486938 748.733704,284.994141
z"/>
<path fill="#000000" opacity="1.000000" stroke="none"
	d="
M709.249390,227.000198
	C709.247375,258.975555 709.151855,290.451508 709.340393,321.925781
	C709.370178,326.883026 708.027405,328.599243 702.879333,328.490417
	C689.668274,328.211182 689.664001,328.444122 689.664001,315.284668
	C689.663879,280.645081 689.750732,246.004990 689.563354,211.366394
	C689.536743,206.443298 690.757080,204.600433 695.962585,204.754791
	C711.436646,205.213608 709.006958,202.861984 709.251587,218.007050
	C709.297302,220.837372 709.252563,223.669144 709.249390,227.000198
z"/>
<path fill="#000000" opacity="1.000000" stroke="none"
	d="
M695.164185,184.303070
	C689.117004,180.787979 687.052185,176.038239 688.375916,169.400681
	C689.520203,163.663177 692.659912,160.322113 697.690369,159.767853
	C702.536499,159.233902 706.740967,160.580460 709.152649,165.094269
	C711.963806,170.355850 711.694031,175.743240 708.437622,180.732712
	C705.850464,184.696930 701.115723,185.895767 695.164185,184.303070
z"/>
</svg>
