<svg version="1.1" id="Layer_1" xmlns="http://www.w3.org/2000/svg" xmlns:xlink="http://www.w3.org/1999/xlink" x="0px" y="0px"
	 width="100%" viewBox="0 0 2560 1280" enable-background="new 0 0 2560 1280" xml:space="preserve">
<path fill="#FFFFFF" opacity="1.000000" stroke="none" 
	d="
M2410.000000,1281.000000 
	C1606.666626,1281.000000 803.833313,1281.000000 1.000000,1281.000000 
	C1.000000,854.333313 1.000000,427.666656 1.000000,1.000000 
	C854.333313,1.000000 1707.666626,1.000000 2561.000000,1.000000 
	C2561.000000,427.666656 2561.000000,854.333313 2561.000000,1281.000000 
	C2510.833252,1281.000000 2460.666748,1281.000000 2410.000000,1281.000000 
M366.421875,554.936401 
	C361.468170,558.815735 356.516693,562.697937 351.560394,566.573975 
	C325.730072,586.774231 299.888641,606.960327 274.074768,627.181641 
	C268.168091,631.808655 262.354706,636.554871 256.254944,641.441162 
	C275.806122,656.501526 294.777344,671.061218 313.691162,685.695190 
	C359.542145,721.170898 405.375854,756.669006 451.175934,792.210388 
	C453.648468,794.129150 455.397919,794.386902 458.100464,792.271362 
	C478.309204,776.451233 498.685089,760.844788 518.980408,745.135010 
	C558.792114,714.318298 598.593323,683.487976 638.376465,652.634399 
	C643.132263,648.946045 647.748779,645.078125 652.815491,640.981628 
	C650.526611,639.149719 648.884460,637.792419 647.198120,636.492310 
	C628.780762,622.292664 610.352173,608.107727 591.935059,593.907776 
	C547.338318,559.522644 502.702087,525.188416 458.229675,490.643250 
	C454.375916,487.649719 451.813385,487.979340 448.336548,490.721588 
	C421.281555,512.060242 394.147614,533.298767 366.421875,554.936401 
z"/>
<path fill="#010101" opacity="1.000000" stroke="none" 
	d="
M366.729980,554.752319 
	C394.147614,533.298767 421.281555,512.060242 448.336548,490.721588 
	C451.813385,487.979340 454.375916,487.649719 458.229675,490.643250 
	C502.702087,525.188416 547.338318,559.522644 591.935059,593.907776 
	C610.352173,608.107727 628.780762,622.292664 647.198120,636.492310 
	C648.884460,637.792419 650.526611,639.149719 652.815491,640.981628 
	C647.748779,645.078125 643.132263,648.946045 638.376465,652.634399 
	C598.593323,683.487976 558.792114,714.318298 518.980408,745.135010 
	C498.685089,760.844788 478.309204,776.451233 458.100464,792.271362 
	C455.397919,794.386902 453.648468,794.129150 451.175934,792.210388 
	C405.375854,756.669006 359.542145,721.170898 313.691162,685.695190 
	C294.777344,671.061218 275.806122,656.501526 256.254944,641.441162 
	C262.354706,636.554871 268.168091,631.808655 274.074768,627.181641 
	C299.888641,606.960327 325.730072,586.774231 351.560394,566.573975 
	C356.516693,562.697937 361.468170,558.815735 366.729980,554.752319 
z"/>
</svg>